<?xml version="1.0" encoding="utf-8"?>
<!-- Generator: Adobe Illustrator 19.0.0, SVG Export Plug-In . SVG Version: 6.00 Build 0)  -->
<svg version="1.1" id="Layer_1" xmlns="http://www.w3.org/2000/svg" xmlns:xlink="http://www.w3.org/1999/xlink" x="0px" y="0px"
	 viewBox="0 0 150 150" style="enable-background:new 0 0 150 150;" xml:space="preserve">
<style type="text/css">
	.st0{fill-rule:evenodd;clip-rule:evenodd;fill:#FFFFFF;}
</style>
<g>
	<polygon class="st0" points="19.3,118.8 13.7,118.8 13.7,121 18.9,121 18.9,122.9 13.7,122.9 13.7,125.7 19.6,125.7 19.6,127.6 
		11.5,127.6 11.5,116.9 19.3,116.9 19.3,118.8 	"/>
	<path class="st0" d="M26.5,124.7l1.1,1c-0.4,0.2-0.8,0.3-1.2,0.3c-1.2,0-2.9-0.7-2.9-3.7c0-3,1.7-3.7,2.9-3.7
		c1.2,0,2.9,0.7,2.9,3.7c0,1-0.2,1.7-0.5,2.3l-1.1-1.1L26.5,124.7L26.5,124.7z M31.5,127.1l-1.2-1.1c0.7-0.8,1.1-2,1.1-3.8
		c0-5-3.7-5.6-5.1-5.6c-1.4,0-5.1,0.6-5.1,5.6c0,5,3.7,5.6,5.1,5.6c0.6,0,1.7-0.1,2.7-0.7l1.3,1.2L31.5,127.1L31.5,127.1z"/>
	<path class="st0" d="M41.9,123.8c0,2.8-1.7,4-4.4,4c-1,0-2.4-0.2-3.4-1.3c-0.6-0.6-0.8-1.5-0.8-2.6v-7.1h2.3v6.9
		c0,1.5,0.9,2.1,1.9,2.1c1.5,0,2.2-0.7,2.2-2v-7h2.3V123.8L41.9,123.8z"/>
	<path class="st0" d="M47.9,119.3L47.9,119.3l1.4,4.2h-2.7L47.9,119.3L47.9,119.3z M45.9,125.4h3.9l0.7,2.2H53l-3.8-10.7h-2.6
		l-3.8,10.7h2.3L45.9,125.4L45.9,125.4z"/>
	<polygon class="st0" points="56.9,125.6 62.2,125.6 62.2,127.6 54.7,127.6 54.7,116.9 56.9,116.9 56.9,125.6 	"/>
	<polygon class="st0" points="70.7,122.8 70.7,127.6 68.4,127.6 68.4,116.9 70.7,116.9 70.7,121 74.8,121 74.8,116.9 77,116.9 
		77,127.6 74.8,127.6 74.8,122.8 70.7,122.8 	"/>
	<path class="st0" d="M81.3,122.2c0-3,1.7-3.7,2.9-3.7c1.2,0,2.9,0.7,2.9,3.7c0,3-1.7,3.7-2.9,3.7C83,126,81.3,125.2,81.3,122.2
		L81.3,122.2z M79.1,122.2c0,5,3.7,5.6,5.1,5.6c1.4,0,5.1-0.6,5.1-5.6c0-5-3.7-5.6-5.1-5.6C82.8,116.6,79.1,117.2,79.1,122.2
		L79.1,122.2z"/>
	<path class="st0" d="M99.9,123.8c0,2.8-1.7,4-4.4,4c-1,0-2.4-0.2-3.4-1.3c-0.6-0.6-0.8-1.5-0.8-2.6v-7.1h2.3v6.9
		c0,1.5,0.9,2.1,1.9,2.1c1.5,0,2.1-0.7,2.1-2v-7h2.3V123.8L99.9,123.8z"/>
	<path class="st0" d="M104,124.3c0,0.6,0.3,1.7,2.3,1.7c1.1,0,2.2-0.3,2.2-1.4c0-0.8-0.8-1.1-1.9-1.3l-1.1-0.3
		c-1.7-0.4-3.4-0.8-3.4-3.1c0-1.2,0.6-3.3,4.1-3.3c3.3,0,4.1,2.1,4.2,3.4h-2.1c-0.1-0.5-0.2-1.6-2.2-1.6c-0.8,0-1.9,0.3-1.9,1.3
		c0,0.8,0.7,1,1.1,1.1l2.6,0.6c1.5,0.4,2.8,1,2.8,2.9c0,3.2-3.3,3.5-4.2,3.5c-3.9,0-4.6-2.2-4.6-3.6H104L104,124.3z"/>
	<polygon class="st0" points="114.7,127.6 112.4,127.6 112.4,116.9 114.7,116.9 114.7,127.6 	"/>
	<polygon class="st0" points="123.6,116.9 125.6,116.9 125.6,127.6 123.4,127.6 119.1,120 119,120 119,127.6 116.9,127.6 
		116.9,116.9 119.3,116.9 123.5,124.3 123.6,124.3 123.6,116.9 	"/>
	<path class="st0" d="M133.1,121.8h4.4v5.7H136l-0.2-1.3c-0.6,0.6-1.4,1.6-3.3,1.6c-2.6,0-4.9-1.8-4.9-5.6c0-2.9,1.6-5.7,5.2-5.6
		c3.3,0,4.6,2.1,4.7,3.6h-2.2c0-0.4-0.8-1.8-2.3-1.8c-1.6,0-3.1,1.1-3.1,3.8c0,2.9,1.6,3.7,3.1,3.7c0.5,0,2.1-0.2,2.6-2.3h-2.5
		V121.8L133.1,121.8z"/>
	<path class="st0" d="M13.3,138.4c0-3,1.7-3.7,2.9-3.7c1.2,0,2.9,0.7,2.9,3.7c0,3-1.7,3.7-2.9,3.7C14.9,142.2,13.3,141.4,13.3,138.4
		L13.3,138.4z M11,138.4c0,5,3.7,5.6,5.1,5.6c1.4,0,5.1-0.6,5.1-5.6c0-5-3.7-5.6-5.1-5.6C14.7,132.8,11,133.4,11,138.4L11,138.4z"/>
	<path class="st0" d="M27.4,138.1v-3.1h1.8c1.4,0,2,0.4,2,1.5c0,0.5,0,1.7-1.7,1.7H27.4L27.4,138.1z M27.4,139.9h2.5
		c2.9,0,3.4-2.4,3.4-3.4c0-2.1-1.2-3.4-3.3-3.4h-4.9v10.7h2.2V139.9L27.4,139.9z"/>
	<path class="st0" d="M39.3,138.1v-3.1h1.8c1.4,0,2,0.4,2,1.5c0,0.5,0,1.7-1.7,1.7H39.3L39.3,138.1z M39.3,139.9h2.6
		c2.9,0,3.4-2.4,3.4-3.4c0-2.1-1.2-3.4-3.3-3.4h-4.9v10.7h2.2V139.9L39.3,139.9z"/>
	<path class="st0" d="M50.9,138.4c0-3,1.7-3.7,2.9-3.7c1.2,0,2.9,0.7,2.9,3.7c0,3-1.7,3.7-2.9,3.7C52.5,142.2,50.9,141.4,50.9,138.4
		L50.9,138.4z M48.6,138.4c0,5,3.7,5.6,5.1,5.6c1.4,0,5.1-0.6,5.1-5.6c0-5-3.7-5.6-5.1-5.6C52.3,132.8,48.6,133.4,48.6,138.4
		L48.6,138.4z"/>
	<path class="st0" d="M64.9,137.8v-2.9h2.8c1.3,0,1.6,0.8,1.6,1.4c0,1.1-0.6,1.5-1.7,1.5H64.9L64.9,137.8z M62.7,143.8h2.2v-4.2h2.3
		c1.6,0,1.7,0.6,1.7,2c0,1.1,0.1,1.6,0.2,2.2h2.5v-0.3c-0.5-0.2-0.5-0.6-0.5-2.1c0-2-0.5-2.3-1.3-2.7c1.1-0.4,1.6-1.4,1.6-2.5
		c0-0.9-0.5-3-3.3-3h-5.4V143.8L62.7,143.8z"/>
	<polygon class="st0" points="79.8,143.8 77.5,143.8 77.5,135 74.3,135 74.3,133.1 83,133.1 83,135 79.8,135 79.8,143.8 	"/>
	<path class="st0" d="M94.9,140c0,2.8-1.7,4-4.4,4c-1,0-2.4-0.2-3.4-1.3c-0.6-0.6-0.8-1.5-0.8-2.6v-7.1h2.3v6.9
		c0,1.5,0.9,2.1,1.9,2.1c1.5,0,2.1-0.7,2.1-2v-7h2.3V140L94.9,140z"/>
	<polygon class="st0" points="105.7,133.1 107.8,133.1 107.8,143.8 105.5,143.8 101.2,136.2 101.2,136.2 101.2,143.8 99.1,143.8 
		99.1,133.1 101.4,133.1 105.7,140.5 105.7,140.5 105.7,133.1 	"/>
	<polygon class="st0" points="114,143.8 111.8,143.8 111.8,133.1 114,133.1 114,143.8 	"/>
	<polygon class="st0" points="122.7,143.8 120.5,143.8 120.5,135 117.3,135 117.3,133.1 126,133.1 126,135 122.7,135 122.7,143.8 	
		"/>
	<polygon class="st0" points="134.4,143.8 132.1,143.8 132.1,139.7 128.5,133.1 131.1,133.1 133.3,137.7 135.4,133.1 137.9,133.1 
		134.4,139.8 134.4,143.8 	"/>
	<path class="st0" d="M74.5,6L2.8,41.3v16.6h8v49.8h126.8V57.9h9.6V41.3L74.5,6L74.5,6z M122.1,92.7H26.3V47.2l48.2-24.6l47.6,24.6
		V92.7L122.1,92.7z"/>
	<polygon class="st0" points="96.4,63.2 52,63.2 52,47.2 96.4,47.2 96.4,63.2 	"/>
	<polygon class="st0" points="96.4,86.2 52,86.2 52,70.2 96.4,70.2 96.4,86.2 	"/>
</g>
</svg>
