<svg xmlns="http://www.w3.org/2000/svg" viewBox="0 0 27.025 27.025"><defs><style>.a{fill:#f6f6f6;fill-rule:evenodd;}</style></defs><path class="a" d="M13.513,2.4a41.433,41.433,0,0,1,5.405.15A6.964,6.964,0,0,1,21.47,3a5.273,5.273,0,0,1,2.552,2.552,6.964,6.964,0,0,1,.45,2.552c0,1.351.15,1.8.15,5.405a41.432,41.432,0,0,1-.15,5.405,6.964,6.964,0,0,1-.45,2.552,5.273,5.273,0,0,1-2.552,2.552,6.964,6.964,0,0,1-2.552.45c-1.351,0-1.8.15-5.405.15a41.432,41.432,0,0,1-5.405-.15,6.964,6.964,0,0,1-2.552-.45A5.273,5.273,0,0,1,3,21.47a6.964,6.964,0,0,1-.45-2.552c0-1.351-.15-1.8-.15-5.405a41.433,41.433,0,0,1,.15-5.405A6.964,6.964,0,0,1,3,5.555a5.392,5.392,0,0,1,1.051-1.5A2.538,2.538,0,0,1,5.555,3a6.964,6.964,0,0,1,2.552-.45,41.433,41.433,0,0,1,5.405-.15m0-2.4A44.362,44.362,0,0,0,7.957.15a9.269,9.269,0,0,0-3.3.6,5.878,5.878,0,0,0-2.4,1.5,5.878,5.878,0,0,0-1.5,2.4,6.841,6.841,0,0,0-.6,3.3A44.362,44.362,0,0,0,0,13.513a44.362,44.362,0,0,0,.15,5.555,9.269,9.269,0,0,0,.6,3.3,5.878,5.878,0,0,0,1.5,2.4,5.878,5.878,0,0,0,2.4,1.5,9.269,9.269,0,0,0,3.3.6,44.362,44.362,0,0,0,5.555.15,44.362,44.362,0,0,0,5.555-.15,9.269,9.269,0,0,0,3.3-.6,6.3,6.3,0,0,0,3.9-3.9,9.269,9.269,0,0,0,.6-3.3c0-1.5.15-1.952.15-5.555a44.362,44.362,0,0,0-.15-5.555,9.269,9.269,0,0,0-.6-3.3,5.878,5.878,0,0,0-1.5-2.4,5.878,5.878,0,0,0-2.4-1.5,9.269,9.269,0,0,0-3.3-.6A44.362,44.362,0,0,0,13.513,0m0,6.606a6.8,6.8,0,0,0-6.906,6.906,6.906,6.906,0,1,0,6.906-6.906m0,11.411a4.424,4.424,0,0,1-4.5-4.5,4.424,4.424,0,0,1,4.5-4.5,4.424,4.424,0,0,1,4.5,4.5,4.424,4.424,0,0,1-4.5,4.5M20.719,4.654a1.652,1.652,0,1,0,1.652,1.652,1.666,1.666,0,0,0-1.652-1.652" transform="translate(0)"/></svg>