<svg xmlns="http://www.w3.org/2000/svg" viewBox="0 0 56.5 14.5">
  <defs>
    <style>
      .cls-1 {
        font-size: 5.23px;
        font-family: JosefinSans-Thin, Josefin Sans;
      }

      .cls-1, .cls-2 {
        fill: #f6f6f6;
      }

      .cls-3 {
        fill: none;
        stroke: #f6f6f6;
        stroke-miterlimit: 10;
        stroke-width: 0.5px;
      }
    </style>
  </defs>
  <title>logo</title>
  <g id="Layer_2" data-name="Layer 2">
    <g id="Layer_1-2" data-name="Layer 1">
      <g>
        <text class="cls-1" transform="translate(6.53 12.08) rotate(-90)">THE</text>
        <path class="cls-2" d="M8.08,7.83V12H8.9V7.45H8.08Z"/>
        <path class="cls-2" d="M15.55,7.45V12h.86V7.45Z"/>
        <path class="cls-2" d="M11,6.52l-.81-1.14L9.37,4.23,8.64,3.18l-.56-.82V6.75h.81V5.2a1.7,1.7,0,0,0,0-.22.82.82,0,0,1,0-.21c.05.09.16.25.33.49l.56.82c.14.21.31.44.46.67h.95Z"/>
        <path class="cls-2" d="M13.3,7.45c-.26.36-.48.68-.66,1L12.25,9l-.53-.74-.55-.77h-.95l.23.33c.24.36.48.7.71,1s.44.64.63.9.34.48.46.62l.42-.63.56-.83L13.85,8l.35-.5Z"/>
        <path class="cls-2" d="M16.41,2.36l-.62.86L15,4.35l-.87,1.23c-.29.42-.56.81-.82,1.17h.9l.3-.43.59-.86.49-.69a1.83,1.83,0,0,1,0,.21c0,.08,0,.15,0,.22V6.75h.87Z"/>
        <path class="cls-2" d="M19.68,2.74h-.83v4h.83Z"/>
        <path class="cls-2" d="M18.86,7.45V12h.83V7.45Z"/>
        <path class="cls-2" d="M23,3.54h1.42a4,4,0,0,1,1.51.27,3.48,3.48,0,0,1,1.15.73,3.32,3.32,0,0,1,.74,1.11A4.07,4.07,0,0,1,28,6.75h.81a5.07,5.07,0,0,0-.22-1.19,3.83,3.83,0,0,0-.82-1.4,4.06,4.06,0,0,0-1.46-1,5.51,5.51,0,0,0-2.2-.4h-2v4H23Z"/>
        <path class="cls-2" d="M28,7.45a2.85,2.85,0,0,1,0,.29,3.59,3.59,0,0,1-.28,1.46A3,3,0,0,1,27,10.3a3.29,3.29,0,0,1-1.14.69,4,4,0,0,1-1.4.24H23V7.45h-.82V12h2.41a4.55,4.55,0,0,0,1.65-.29,4.08,4.08,0,0,0,2.31-2.18,4.27,4.27,0,0,0,.35-1.75c0-.11,0-.23,0-.34Z"/>
        <path class="cls-2" d="M35.77,10.92c-.15-.23-.3-.48-.45-.73l-.45-.74-.4-.65-.29-.48a2.23,2.23,0,0,0,1-.87H34l-.25.16a2.13,2.13,0,0,1-1,.19H31.52V7.45H30.7V12h.82V8.58h1.55l.25,0c.08.14.19.31.32.51s.25.41.38.64l.42.68c.15.23.29.45.41.66l.35.57.25.39h1l-.29-.45Z"/>
        <path class="cls-2" d="M31.51,3.51H32.8a2.26,2.26,0,0,1,.85.15,1.66,1.66,0,0,1,.61.4,1.76,1.76,0,0,1,.37.56,1.72,1.72,0,0,1,.12.63,2.1,2.1,0,0,1-.09.58,1.56,1.56,0,0,1-.31.6,1.35,1.35,0,0,1-.35.32h1.15s.07-.08.1-.13a3.1,3.1,0,0,0,.32-1.37,2.53,2.53,0,0,0-.23-1.11,2.22,2.22,0,0,0-.63-.78,2.62,2.62,0,0,0-.89-.47,3.7,3.7,0,0,0-1-.15H30.7v4h.81Z"/>
        <path class="cls-2" d="M38.76,2.74h-.83v4h.83Z"/>
        <path class="cls-2" d="M37.94,7.45V12h.82V7.45Z"/>
        <path class="cls-2" d="M43.57,6.48l-.81-.31a5.21,5.21,0,0,1-.71-.33,1.75,1.75,0,0,1-.5-.43.91.91,0,0,1-.19-.59,1.18,1.18,0,0,1,.12-.53,1.4,1.4,0,0,1,.37-.44,1.68,1.68,0,0,1,.58-.3,2.67,2.67,0,0,1,.78-.11,4.32,4.32,0,0,1,1,.12,6.8,6.8,0,0,1,.93.29l.3-.66L45,3l-.56-.16-.67-.13a4,4,0,0,0-.69,0A3.06,3.06,0,0,0,42,2.88a2.49,2.49,0,0,0-.81.48,1.83,1.83,0,0,0-.51.7,2,2,0,0,0-.18.83,1.49,1.49,0,0,0,.33,1,2.92,2.92,0,0,0,.82.64c.16.08.35.15.53.22h2C44,6.65,43.79,6.56,43.57,6.48Z"/>
        <path class="cls-2" d="M45.38,8a2.9,2.9,0,0,0-.71-.49l-.18-.08h-2a4.53,4.53,0,0,0,.55.23,8,8,0,0,1,1.07.44,2.83,2.83,0,0,1,.82.59,1.27,1.27,0,0,1,.33.91,1.31,1.31,0,0,1-.22.78,2,2,0,0,1-.55.52,2.37,2.37,0,0,1-.72.29,3,3,0,0,1-1.33,0,6,6,0,0,1-.61-.15,5.48,5.48,0,0,1-.56-.23c-.18-.09-.34-.17-.49-.26l-.37.72c.1.06.23.14.39.22a4.55,4.55,0,0,0,.58.26,4.46,4.46,0,0,0,.75.22,4.59,4.59,0,0,0,.93.09,4.1,4.1,0,0,0,1.27-.18,2.71,2.71,0,0,0,.94-.49,2.12,2.12,0,0,0,.59-.77,2.34,2.34,0,0,0,.2-1,2.13,2.13,0,0,0-.19-1A2.26,2.26,0,0,0,45.38,8Z"/>
        <path class="cls-2" d="M48.65,8.09h4.11V7.45H47.84V12h5.57v-.77H48.65Z"/>
        <path class="cls-2" d="M48.65,6.62h0V3.49h4.58V2.74h-5.4v4h.82Z"/>
        <rect class="cls-3" x="0.25" y="0.25" width="56" height="14"/>
      </g>
    </g>
  </g>
</svg>
