<svg xmlns="http://www.w3.org/2000/svg" viewBox="0 0 27.025 21.92"><defs><style>.a{fill:#f6f6f6;fill-rule:evenodd;}</style></defs><path class="a" d="M46.558,23.92c10.21,0,15.765-8.408,15.765-15.765V7.405a12.2,12.2,0,0,0,2.7-2.853,12.464,12.464,0,0,1-3.153.9,5.841,5.841,0,0,0,2.4-3A13.771,13.771,0,0,1,60.821,3.8,5.362,5.362,0,0,0,56.768,2a5.641,5.641,0,0,0-5.555,5.555,2.927,2.927,0,0,0,.15,1.2A15.523,15.523,0,0,1,39.952,2.9,5.75,5.75,0,0,0,39.2,5.754a5.965,5.965,0,0,0,2.4,4.654,5.061,5.061,0,0,1-2.552-.751h0a5.487,5.487,0,0,0,4.5,5.405,4.629,4.629,0,0,1-1.5.15A2.555,2.555,0,0,1,41,15.062a5.688,5.688,0,0,0,5.255,3.9,11.336,11.336,0,0,1-6.906,2.4A4.157,4.157,0,0,1,38,21.218a14.171,14.171,0,0,0,8.558,2.7" transform="translate(-38 -2)"/></svg>