<svg xmlns="http://www.w3.org/2000/svg" viewBox="0 0 27.025 27.025"><defs><style>.a{fill:#f6f6f6;}</style></defs><path class="a" d="M4.054,4.054A12.267,12.267,0,0,1,13.513,0a12.267,12.267,0,0,1,9.459,4.054,12.267,12.267,0,0,1,4.054,9.459,12.267,12.267,0,0,1-4.054,9.459,12.267,12.267,0,0,1-9.459,4.054,12.267,12.267,0,0,1-9.459-4.054C1.576,20.269,0,17.341,0,13.513A12.267,12.267,0,0,1,4.054,4.054ZM15.314,24.323q1.351,0,3.378-2.027a9.837,9.837,0,0,0,1.576-4.729,3.73,3.73,0,0,0-1.126-2.7,3.964,3.964,0,0,0-2.928-1.351H13.963a6.576,6.576,0,0,1-2.027-.45,2.045,2.045,0,0,1-.676-1.576,1.17,1.17,0,0,1,.45-.9,1.707,1.707,0,0,1,.9-.45,1.537,1.537,0,0,1,1.126.676c.45.225.676.45.9.45a1.354,1.354,0,0,0,.9-.225,1.354,1.354,0,0,0,.225-.9,3.584,3.584,0,0,0-1.126-2.252A9.315,9.315,0,0,0,15.765,3.6a.484.484,0,0,0-.45-.45,6.962,6.962,0,0,0-1.8-.45A11.266,11.266,0,0,0,7.657,4.5a5.67,5.67,0,0,0-2.027,4.5,5.766,5.766,0,0,0,1.8,4.279,6.153,6.153,0,0,0,4.279,1.8h0v.9a2.891,2.891,0,0,0,.9,2.252,3.28,3.28,0,0,0,2.027,1.351v4.054c0,.225,0,.225.225.45S15.089,24.323,15.314,24.323Z"/></svg>